#!OML:ASF X:\für Bonn\!DataBase\2005_08_10_Bjorn_Final\c3d\bjorn.ASF
:FULLY-SPECIFIED
:DEGREES
311
root 1.62489 18.3315 2.19081 -184.74 22.6994 182.73
lowerback -2.79783 3.28364 3.77341
upperback 9.12346 4.98251 -1.75248
thorax 11.8714 3.13496 -3.28158
lowerneck -3.4395 1.46829 6.54348
upperneck 20.1681 3.5457 -4.8459
head 6.88663 2.27898 -2.36322
rclavicle -2.04748e-014 3.18055e-015
rhumerus -371.154 11.8389 264.125
rradius 55.7549
rwrist 5.18795
rhand -7.2956 6.48111
rfingers 7.12502
rthumb 18.5865 -22.6509
lclavicle -2.04748e-014 3.18055e-015
lhumerus -22.9911 -14.9562 91.5771
lradius 31.8074
lwrist 15.6
lhand -40.4795 -14.0924
lfingers 7.12502
lthumb -13.4299 15.4547
rfemur 7.49706 1.15423 10.7969
rtibia 31.2693
rfoot -14.8792 30.5298
rtoes -2.26348
lfemur -18.9628 -4.70867 -4.35534
ltibia 40.6338
lfoot -9.97332 -8.24152
ltoes -18.1626
312
root 1.65951 18.3225 2.27719 -184.729 22.4506 182.655
lowerback -2.55512 3.23236 3.84034
upperback 9.25289 4.94401 -1.75536
thorax 11.8754 3.13789 -3.33642
lowerneck -3.62682 1.50818 6.2922
upperneck 20.1479 3.59122 -4.79659
head 6.91101 2.27763 -2.29978
rclavicle -1.47101e-014 6.36111e-015
rhumerus -372.812 10.2087 264.1
rradius 54.9327
rwrist 4.73036
rhand -7.16204 6.93763
rfingers 7.12502
rthumb 18.715 -22.1821
lclavicle -1.47101e-014 6.36111e-015
lhumerus -24.0962 -11.9453 90.7423
lradius 31.3041
lwrist 19.2662
lhand -40.3049 -13.3081
lfingers 7.12502
lthumb -13.2617 16.25
rfemur 7.45183 0.879546 10.9544
rtibia 31.1386
rfoot -15.618 30.4
rtoes -1.96026
lfemur -19.2309 -5.05861 -4.20289
ltibia 40.4459
lfoot -9.63945 -8.14162
ltoes -18.1132
313
root 1.69417 18.3185 2.36413 -184.707 22.1922 182.586
lowerback -2.32478 3.18056 3.92932
upperback 9.38714 4.90512 -1.76554
thorax 11.8957 3.14405 -3.41021
lowerneck -3.74924 1.54398 6.07085
upperneck 20.0819 3.63575 -4.77445
head 6.90985 2.27658 -2.25094
rclavicle 5.48646e-014 -4.77083e-015
rhumerus -374.464 8.61151 264.168
rradius 54.3984
rwrist 4.37332
rhand -6.94921 7.2007
rfingers 7.12502
rthumb 18.9197 -21.8992
lclavicle 5.48646e-014 -4.77083e-015
lhumerus -25.2487 -8.90895 89.7063
lradius 31.1098
lwrist 22.6189
lhand -39.9764 -12.7165
lfingers 7.12502
lthumb -12.9451 16.862
rfemur 7.38761 0.640561 11.1298
rtibia 30.9935
rfoot -16.1635 30.2541
rtoes -1.4399
lfemur -19.4678 -5.44149 -4.04753
ltibia 40.1706
lfoot -9.28065 -7.9956
ltoes -18.0727
314
root 1.72866 18.319 2.4523 -184.649 21.9257 182.517
lowerback -2.10245 3.12677 4.00779
upperback 9.49329 4.8602 -1.77838
thorax 11.8869 3.14386 -3.48263
lowerneck -3.8047 1.56188 5.90378
upperneck 20.0181 3.67058 -4.80702
head 6.89852 2.27393 -2.23035
rclavicle 2.18663e-015 -1.66979e-014
rhumerus -376.159 7.19022 264.319
rradius 54.1642
rwrist 3.89189
rhand -6.76777 7.31286
rfingers 7.12502
rthumb 19.0942 -21.7699
lclavicle 2.18663e-015 -1.66979e-014
lhumerus -26.5521 -6.06409 88.5373
lradius 31.2389
lwrist 25.6503
lhand -39.4731 -12.3211
lfingers 7.12502
lthumb -12.4598 17.2875
rfemur 7.26351 0.440175 11.316
rtibia 30.858
rfoot -16.5487 30.1069
rtoes -0.60887
lfemur -19.7109 -5.81101 -3.89613
ltibia 39.8223
lfoot -8.93282 -7.84404
ltoes -18.4209
315
root 1.76222 18.3231 2.54204 -184.556 21.6553 182.432
lowerback -1.91192 3.06852 4.05576
upperback 9.58192 4.80612 -1.78424
thorax 11.8722 3.1338 -3.53049
lowerneck -3.80383 1.57698 5.75742
upperneck 19.9734 3.72248 -4.89689
head 6.88544 2.28037 -2.23103
rclavicle 7.2954e-014 -1.11319e-014
rhumerus -377.903 5.93663 264.551
rradius 54.1422
rwrist 3.26938
rhand -6.75394 7.45711
rfingers 7.12502
rthumb 19.1075 -21.6243
lclavicle 7.2954e-014 -1.11319e-014
lhumerus -27.9591 -3.63409 87.3728
lradius 31.5846
lwrist 28.1228
lhand -39.4402 -11.14
lfingers 7.12502
lthumb -12.4281 18.4705
rfemur 7.05763 0.247859 11.4843
rtibia 30.7362
rfoot -16.7047 29.9963
rtoes 0.642399
lfemur -19.9726 -6.15858 -3.74841
ltibia 39.4118
lfoot -8.48428 -7.70228
ltoes -18.523
316
root 1.79522 18.3293 2.63447 -184.413 21.4005 182.344
lowerback -1.741 3.01137 4.09554
upperback 9.63737 4.74772 -1.79413
thorax 11.8301 3.11748 -3.57903
lowerneck -3.77314 1.5871 5.65864
upperneck 19.9817 3.78601 -5.03684
head 6.88634 2.29616 -2.25527
rclavicle 4.57205e-015 1.35174e-014
rhumerus -379.705 4.85572 264.832
rradius 54.3193
rwrist 2.54375
rhand -6.86281 7.58735
rfingers 7.12502
rthumb 19.0028 -21.5044
lclavicle 4.57205e-015 1.35174e-014
lhumerus -29.4367 -1.57818 86.2141
lradius 32.0188
lwrist 30.2353
lhand -39.7586 -10.6012
lfingers 7.12502
lthumb -12.735 18.9905
rfemur 6.76326 0.0668312 11.6465
rtibia 30.6298
rfoot -16.7436 29.908
rtoes 1.94235
lfemur -20.2687 -6.40458 -3.59795
ltibia 38.9435
lfoot -8.00797 -7.58839
ltoes -18.9806
317
root 1.82759 18.339 2.72677 -184.264 21.1782 182.258
lowerback -1.56979 2.98524 4.16814
upperback 9.68887 4.73131 -1.81951
thorax 11.7931 3.12571 -3.65697
lowerneck -3.79304 1.57682 5.58653
upperneck 20.0955 3.8252 -5.14743
head 6.9289 2.30737 -2.27556
rclavicle -6.12257e-014 3.57812e-014
rhumerus -381.517 3.84236 265.146
rradius 54.6421
rwrist 1.78958
rhand -7.0889 7.68483
rfingers 7.12502
rthumb 18.7853 -21.4281
lclavicle -6.12257e-014 3.57812e-014
lhumerus -30.9604 0.0547699 85.0372
lradius 32.6233
lwrist 32.1822
lhand -40.1638 -9.72082
lfingers 7.12502
lthumb -13.1256 19.8461
rfemur 6.43098 -0.0781576 11.8108
rtibia 30.5394
rfoot -16.7903 29.8269
rtoes 3.29054
lfemur -20.5279 -6.59878 -3.45021
ltibia 38.4179
lfoot -7.48466 -7.48074
ltoes -19.4125
318
root 1.85923 18.3518 2.82191 -184.115 20.9369 182.178
lowerback -1.38793 2.93198 4.20865
upperback 9.74446 4.67742 -1.81332
thorax 11.7432 3.11053 -3.68819
lowerneck -3.8375 1.56798 5.45191
upperneck 20.2991 3.89382 -5.28575
head 7.00586 2.32934 -2.29168
rclavicle 3.91606e-014 -1.90833e-014
rhumerus -383.426 3.04903 265.518
rradius 55.231
rwrist 1.10536
rhand -7.42743 7.57033
rfingers 7.12502
rthumb 18.4597 -21.5738
lclavicle 3.91606e-014 -1.90833e-014
lhumerus -32.5715 1.48097 83.9136
lradius 33.4293
lwrist 33.8687
lhand -40.6029 -8.65402
lfingers 7.12502
lthumb -13.549 20.8852
rfemur 6.09142 -0.231474 11.9866
rtibia 30.4462
rfoot -16.8526 29.7024
rtoes 4.36649
lfemur -20.7705 -6.81644 -3.29203
ltibia 37.8384
lfoot -6.90158 -7.38012
ltoes -19.6924
319
root 1.88966 18.3673 2.91902 -183.972 20.7103 182.081
lowerback -1.1919 2.89567 4.25593
upperback 9.79959 4.64999 -1.82463
thorax 11.6898 3.11046 -3.73939
lowerneck -3.88729 1.5471 5.32074
upperneck 20.5383 3.94381 -5.37963
head 7.09384 2.34723 -2.29519
rclavicle 1.63003e-014 -1.59028e-015
rhumerus -385.441 2.38999 265.915
rradius 56.1129
rwrist 0.478933
rhand -7.74885 7.27456
rfingers 7.12502
rthumb 18.1505 -21.8986
lclavicle 1.63003e-014 -1.59028e-015
lhumerus -34.2314 2.57327 82.8338
lradius 34.3796
lwrist 35.1404
lhand -41.054 -7.52704
lfingers 7.12502
lthumb -13.9837 21.9826
rfemur 5.72582 -0.425713 12.1308
rtibia 30.3612
rfoot -17.0263 29.5573
rtoes 4.94634
lfemur -20.986 -6.96527 -3.15723
ltibia 37.2059
lfoot -6.23575 -7.28447
ltoes -19.8319
320
root 1.9196 18.3859 3.01671 -183.797 20.4722 181.985
lowerback -1.02455 2.85364 4.29473
upperback 9.84371 4.61073 -1.82887
thorax 11.6381 3.10181 -3.7784
lowerneck -3.93361 1.522 5.15854
upperneck 20.8058 3.99984 -5.47491
head 7.19046 2.367 -2.29339
rclavicle 5.36719e-014 -2.90226e-014
rhumerus -387.503 1.80737 266.337
rradius 57.1241
rwrist -0.079826
rhand -8.14294 7.10267
rfingers 7.12502
rthumb 17.7713 -22.1053
lclavicle 5.36719e-014 -2.90226e-014
lhumerus -35.9446 3.2882 81.8727
lradius 35.4451
lwrist 35.9515
lhand -41.3171 -6.50189
lfingers 7.12502
lthumb -14.2372 22.9901
rfemur 5.32028 -0.599245 12.29
rtibia 30.283
rfoot -17.1988 29.3486
rtoes 5.51705
lfemur -21.2161 -7.04563 -3.01954
ltibia 36.5294
lfoot -5.47722 -7.24284
ltoes -19.7257
321
root 1.94828 18.4042 3.1164 -183.604 20.2178 181.869
lowerback -0.883816 2.80038 4.30234
upperback 9.89204 4.55682 -1.82852
thorax 11.6023 3.08293 -3.79499
lowerneck -3.95649 1.49573 4.96928
upperneck 21.043 4.05926 -5.58183
head 7.27327 2.38494 -2.29079
rclavicle 5.00937e-014 -8.34896e-015
rhumerus -389.478 1.32105 266.792
rradius 58.1273
rwrist -0.69945
rhand -8.63829 7.16635
rfingers 7.12502
rthumb 17.2946 -22.0841
lclavicle 5.00937e-014 -8.34896e-015
lhumerus -37.6473 3.78191 81.0015
lradius 36.5242
lwrist 36.2365
lhand -41.5685 -5.78897
lfingers 7.12502
lthumb -14.4794 23.6858
rfemur 4.87157 -0.829592 12.4201
rtibia 30.2297
rfoot -17.4753 29.1101
rtoes 5.63107
lfemur -21.4758 -7.03705 -2.89711
ltibia 35.8215
lfoot -4.5933 -7.29423
ltoes -19.1726
